Coordinates
version=1
nRows=12
nColumns=24
inDegrees=yes

Units are S.I. units (second, meters, Newtons, ...)
Angles are in degrees.

endheader
time	pelvis_tilt	pelvis_list	pelvis_rotation	pelvis_tx	pelvis_ty	pelvis_tz	hip_flexion_r	hip_adduction_r	hip_rotation_r	knee_angle_r	ankle_angle_r	subtalar_angle_r	mtp_angle_r	hip_flexion_l	hip_adduction_l	hip_rotation_l	knee_angle_l	ankle_angle_l	subtalar_angle_l	mtp_angle_l	lumbar_extension	lumbar_bending	lumbar_rotation
      7.13000000	     -2.88592023	     -5.90394448	     -0.21128524	      0.75442677	      0.67156341	      0.16001996	      3.41023467	     11.71905049	     12.42832288	     -8.12718765	     13.14483428	    -15.24247765	      0.00000000	     28.61232602	     -7.95900383	     -5.52512238	    -68.02666899	      7.08972100	    -10.36895062	      0.00000000	    -11.69624006	      0.51849122	      7.44139938
      7.14000000	     -3.05186262	     -5.56463953	     -1.23399244	      0.76613632	      0.67222435	      0.16024168	      1.38202310	     11.05788594	     13.14151073	     -6.14081241	     13.47663738	    -14.25534139	      0.00000000	     30.55486694	     -7.84521402	     -5.99234308	    -66.12765415	      7.93208586	    -10.58906817	      0.00000000	    -11.56345360	      0.07566058	      7.88259446
      7.15000000	     -3.13613158	     -5.29140541	     -2.16095701	      0.77788775	      0.67258030	      0.16034841	     -0.75474201	     10.38672162	     13.70393207	     -4.05669032	     13.70811710	    -13.21010992	      0.00000000	     32.24982108	     -7.78471103	     -6.27452147	    -63.78288850	      8.45391375	    -11.12401443	      0.00000000	    -11.53631301	     -0.28309718	      8.29120983
      7.16000000	     -3.22040554	     -5.07006432	     -3.01439630	      0.78971995	      0.67252234	      0.16032640	     -2.91817467	      9.70056206	     14.12895115	     -1.88606682	     13.85505942	    -12.18357500	      0.00000000	     33.75731789	     -7.74347559	     -6.37785797	    -60.99045280	      8.61380793	    -12.07642780	      0.00000000	    -11.51120054	     -0.56033964	      8.70932173
      7.17000000	     -3.33410238	     -4.91072939	     -3.81497931	      0.80165845	      0.67200692	      0.16025463	     -5.06463904	      9.03334070	     14.44329504	      0.32425909	     13.89437713	    -11.20991725	      0.00000000	     35.07562882	     -7.74729929	     -6.29870829	    -57.73602771	      8.39233579	    -13.26464435	      0.00000000	    -11.44172355	     -0.77362096	      9.14091935
      7.18000000	     -3.51173054	     -4.84093281	     -4.56276905	      0.81365627	      0.67096831	      0.16015623	     -7.13271190	      8.44163861	     14.71063018	      2.51095223	     13.82177065	    -10.38227188	      0.00000000	     36.23340158	     -7.82904526	     -6.01320749	    -54.02938014	      7.81861576	    -14.47048875	      0.00000000	    -11.30193886	     -0.88146437	      9.55781247
      7.19000000	     -3.78641559	     -4.79213667	     -5.43477218	      0.82570026	      0.66941877	      0.16020296	     -9.03636143	      7.86126173	     15.15927922	      4.55087807	     13.74808212	     -9.76912676	      0.00000000	     37.18630180	     -8.03844981	     -5.68715821	    -49.85069669	      7.16972182	    -15.28206054	      0.00000000	    -11.03815061	     -1.00009409	     10.22313399
      7.20000000	     -4.17842630	     -4.82230363	     -6.49977523	      0.83774524	      0.66736973	      0.16048569	    -10.67209885	      7.38035676	     15.69487667	      6.27050499	     13.80627093	     -9.23245951	      0.00000000	     37.94090456	     -8.49254354	     -5.32149510	    -45.25606344	      6.60239975	    -15.35139739	      0.00000000	    -10.63279215	     -1.07335799	     11.18307377
      7.21000000	     -4.42296695	     -4.86529309	     -7.61517380	      0.84979509	      0.66509350	      0.16077715	    -12.35932049	      6.87112136	     16.58724912	      7.77985801	     13.62063296	     -9.37692986	      0.00000000	     38.15649936	     -8.91787051	     -4.60225191	    -40.12748440	      5.50050634	    -15.68032838	      0.00000000	    -10.43966602	     -1.15410494	     12.16181759
      7.22000000	     -4.64679504	     -5.02884811	     -8.96375705	      0.86195001	      0.66251708	      0.16131253	    -13.87676234	      6.48574871	     17.52902778	      8.82046618	     13.91481489	     -9.24861806	      0.00000000	     37.98509749	     -9.62930178	     -3.68748542	    -34.75913249	      4.79962121	    -15.21949615	      0.00000000	    -10.26537187	     -1.15018676	     13.40273263
      7.23000000	     -4.74634507	     -5.33718925	    -10.49310758	      0.87424532	      0.65979846	      0.16199987	    -15.33922146	      6.22823889	     18.50516017	      9.39062854	     14.37248202	     -9.15053907	      0.00000000	     37.32127619	    -10.57295257	     -2.37220806	    -29.26937526	      4.03593505	    -14.78513926	      0.00000000	    -10.26049496	     -1.03741859	     14.86297671
      7.24000000	     -4.65532170	     -5.79912208	    -12.13850226	      0.88677122	      0.65704318	      0.16275926	    -16.86181082	      6.06702100	     19.53913415	      9.54624535	     14.99331332	     -9.01587514	      0.00000000	     36.15661140	    -11.72825637	     -0.59432315	    -23.93377493	      3.15798152	    -14.70412563	      0.00000000	    -10.50711623	     -0.80784925	     16.39377595
